<svg width="900" height="900" xmlns="http://www.w3.org/2000/svg">
 <g>
  <title>background</title>
  <rect id="svg_1" fill="#fff" height="902" width="902" y="-1" x="-1"/>
  <g id="svg_2" display="none">
   <rect id="svg_3" stroke-width="0" fill="url(#gridpattern)" height="100%" width="100%"/>
  </g>
 </g>

 <g>
  <title>Layer 1</title>
  <rect id="svg_4" stroke-width="1.5" stroke="#c7c7c7" fill="#c7c7c7" height="953.75" width="11.25" y="-23.125" x="0.625"/>
  <rect id="svg_5" stroke-width="1.5" stroke="#c7c7c7" fill="#c7c7c7" height="953.75" width="11.25" y="-23.125" x="889.38"/>
  <rect id="svg_6" stroke-width="1.5" stroke="#c7c7c7" fill="#c7c7c7" height="953.75" width="11.25" y="418.12" x="444.38" transform="rotate(-89.95500183105469 450.00000000000006,895.0000000000001) "/>
  <rect id="svg_7" stroke-width="1.5" stroke="#c7c7c7" fill="#c7c7c7" height="953.75" width="11.25" y="-470.62" x="430.62" transform="rotate(-89.98899841308594 436.25000000000006,6.250000000000025) "/>
  <rect id="svg_8" stroke-width="1.5" stroke="#c7c7c7" fill="#c7c7c7" height="1336.7" width="11.25" y="-216.94" x="443.02" transform="rotate(45.04199981689453 448.6400146484374,451.4200134277345) "/>
  <rect id="svg_9" stroke-width="1.5" stroke="#c7c7c7" fill="#c7c7c7" height="1268.6" width="11.25" y="-191.32" x="437.69" transform="rotate(134.88999938964844 443.32000732421875,443) "/>
  <path id="svg_10" stroke-width="1.5" stroke="#c7c7c7" opacity="0.5" fill-opacity="null" fill="#c7c7c7" d="m365.26,311.88l-0.26148,264.38l205,-122.39"/>
  <text id="svg_11" xml:space="preserve" stroke-width="0" stroke-opacity="null" stroke="#c7c7c7" font-weight="bold" font-size="34" font-family="Helvetica, Arial, sans-serif" fill="#c7c7c7" y="266.875" x="350.625">PLAY VIDEO</text>
  <text id="svg_12" xml:space="preserve" stroke-width="0" stroke-opacity="null" stroke="#c7c7c7" font-size="34" font-family="Helvetica, Arial, sans-serif" fill="#595959" y="497.139786" x="5.827069" transform="matrix(0.9842743277549743,0,0,1.0832877641320229,9.092388324439524,-71.56499884124457) ">Short video covering the fundamentals of binary to decimal</text>
 </g>
 <g>
  <title>background</title>
  <rect fill="none" id="canvas_background" height="402" width="582" y="-1" x="-1"/>
 </g>
</svg>