<?xml version="1.0" encoding="UTF-8"?>
<svg viewBox="0 0 900 900" xmlns="http://www.w3.org/2000/svg">
<g>
<title>background</title>
<rect x="-1" y="-1" width="902" height="902" fill="#fff"/>
<g x="0" y="0" display="none" overflow="visible">
<rect width="100%" height="100%" fill="url(#gridpattern)" stroke-width="0"/>
</g>
</g>
<g>
<title>Layer 1</title>
<rect x=".625" y="-23.125" width="11.25" height="953.75" fill="#c7c7c7" stroke="#c7c7c7" stroke-width="1.5"/>
<rect x="889.38" y="-23.125" width="11.25" height="953.75" fill="#c7c7c7" stroke="#c7c7c7" stroke-width="1.5"/>
<rect transform="rotate(-89.955 450 895)" x="444.38" y="418.12" width="11.25" height="953.75" fill="#c7c7c7" stroke="#c7c7c7" stroke-width="1.5"/>
<rect transform="rotate(-89.989 436.25 6.25)" x="430.62" y="-470.62" width="11.25" height="953.75" fill="#c7c7c7" stroke="#c7c7c7" stroke-width="1.5"/>
<rect transform="rotate(45.042 448.64 451.42)" x="443.02" y="-216.94" width="11.25" height="1336.7" fill="#c7c7c7" stroke="#c7c7c7" stroke-width="1.5"/>
<rect transform="rotate(134.89 443.32 443)" x="437.69" y="-191.32" width="11.25" height="1268.6" fill="#c7c7c7" stroke="#c7c7c7" stroke-width="1.5"/>
<path d="m365.26 311.88l-0.26148 264.38 205-122.39" fill="#c7c7c7" fill-opacity="null" opacity=".5" stroke="#c7c7c7" stroke-width="1.5"/>
<text x="350.625" y="266.875" fill="#c7c7c7" font-family="Helvetica, Arial, sans-serif" font-size="34" font-weight="bold" stroke="#c7c7c7" stroke-opacity="null" stroke-width="0" xml:space="preserve">PLAY VIDEO</text>
<text transform="matrix(1 0 0 1.129 0 -94.839)" x="101.875" y="488.357142" fill="#595959" font-family="Helvetica, Arial, sans-serif" font-size="34" stroke="#c7c7c7" stroke-opacity="null" stroke-width="0" xml:space="preserve">Short video covering the fundamentals of binary</text>
</g>
</svg>
